<svg xmlns="http://www.w3.org/2000/svg" width="145.202" height="108.889" viewBox="0 0 145.202 108.889"><g transform="translate(-1000.445 -1921.504)"><path d="M1111.447,2015.8a153.427,153.427,0,0,1,33.587,13.681c-.7-5.859-3.731-11.093-6.695-16.126l-9.82-16.675" fill="none" stroke="#ff8206" stroke-miterlimit="10" stroke-width="1"/><path d="M1000.521,1922.2c5.223-.8,10.507.642,15.551,2.264a214.977,214.977,0,0,1,53.191,25.681c7.233,4.815,14.774,11,16.157,19.821a18.874,18.874,0,0,1-5.624,16.273,19.312,19.312,0,0,1-16.09,4.893c-3.668-.576-7.4-2.4-9.2-5.775-3.151-5.908,1.371-13.728,7.47-16.045s12.879-.681,19.068,1.353c7.495,2.46,21.938,12.877,27.341,18.815,8.169,8.972,10.9,11.649,26.388,27.556" fill="none" stroke="#ff8206" stroke-miterlimit="10" stroke-width="1"/></g></svg>